<?xml version="1.0"?>
<svg xmlns="http://www.w3.org/2000/svg" viewBox="0 0 50 50">
    <path style="line-height:normal;text-indent:0;text-align:start;text-decoration-line:none;text-decoration-style:solid;text-decoration-color:#000;text-transform:none;block-progression:tb;isolation:auto;mix-blend-mode:normal" d="M 24.416016 4.0039062 C 15.47113 3.8352522 7.0497656 9.4500156 4.0800781 18.376953 C 2.3110781 23.698953 2.7204219 29.39125 5.2324219 34.40625 C 7.7444219 39.42125 12.060813 43.156781 17.382812 44.925781 C 19.573812 45.653781 21.799234 46 23.990234 46 C 25.694234 46 27.375953 45.786766 29.001953 45.384766 L 29.001953 43.318359 C 25.506953 44.277359 21.701672 44.255297 18.013672 43.029297 C 13.197672 41.428297 9.2944844 38.046766 7.0214844 33.509766 C 4.7484844 28.972766 4.3775156 23.822813 5.9785156 19.007812 C 8.6245156 11.048813 16.060484 6 24.021484 6 C 26.003484 6 28.019 6.3136562 30 6.9726562 C 34.816 8.5736562 38.719188 11.953234 40.992188 16.490234 C 41.609187 17.721234 42.076156 19.001688 42.410156 20.304688 L 36.384766 17.822266 C 35.872766 17.613266 35.289125 17.855234 35.078125 18.365234 C 34.868125 18.876234 35.110094 19.460875 35.621094 19.671875 L 43.525391 22.925781 C 43.650391 22.976781 43.77925 23.001953 43.90625 23.001953 C 44.29925 23.001953 44.673031 22.768812 44.832031 22.382812 L 47.925781 14.871094 C 48.134781 14.359094 47.890859 13.774453 47.380859 13.564453 C 46.869859 13.354453 46.285219 13.599375 46.074219 14.109375 L 44.09375 18.919922 C 43.75175 17.787922 43.32225 16.675703 42.78125 15.595703 C 40.26925 10.580703 35.952859 6.8432188 30.630859 5.0742188 C 28.571359 4.3890937 26.48022 4.0428264 24.416016 4.0039062 z M 34.832031 31 C 32.72846 31 31 32.72846 31 34.832031 L 31 46.166016 C 31 48.270237 32.72846 50 34.832031 50 L 46.166016 50 C 48.270237 50 50 48.27154 50 46.167969 L 50 34.832031 C 50 32.72846 48.27154 31 46.167969 31 L 34.832031 31 z M 34.832031 33 L 46.167969 33 C 47.180398 33 48 33.819602 48 34.832031 L 48 46.167969 C 48 47.180398 47.179794 48 46.166016 48 L 34.832031 48 C 33.819602 48 33 47.179794 33 46.166016 L 33 34.832031 C 33 33.819602 33.819602 33 34.832031 33 z M 45.199219 36 L 39.800781 42.300781 L 36.5 39.800781 L 35.300781 41.400391 L 40 45 L 46.699219 37.300781 L 45.199219 36 z" font-weight="400" font-family="sans-serif" white-space="normal" overflow="visible"/>
</svg>
